<svg width="548" height="131" viewBox="0 0 548 131" fill="none" xmlns="http://www.w3.org/2000/svg">
<rect width="548" height="131" fill="#1B1C1E"/>
<path d="M71.192 67.8V99H31.736C25.976 99 21.56 97.752 18.488 95.256C15.416 92.76 13.88 89.496 13.88 85.464C13.88 81.048 15.384 77.528 18.392 74.904C21.4 72.216 25.016 69.432 29.24 66.552L45.56 55.32H15.224V41.4H40.472C51.48 41.4 59.352 43.736 64.088 48.408C68.824 53.016 71.192 59.48 71.192 67.8ZM36.92 85.08H53.912V65.976L36.536 79.512C35.448 80.344 34.68 80.984 34.232 81.432C33.784 81.816 33.56 82.328 33.56 82.968C33.56 83.672 33.816 84.216 34.328 84.6C34.84 84.92 35.704 85.08 36.92 85.08ZM82.2868 99V27H100.527V40.44H123.183C130.287 40.44 135.855 42.808 139.887 47.544C143.919 52.28 145.935 58.552 145.935 66.36V73.08C145.935 80.888 143.919 87.16 139.887 91.896C135.855 96.632 130.287 99 123.183 99H82.2868ZM116.943 54.648H100.527V84.792H116.943C120.847 84.792 123.535 83.896 125.007 82.104C126.479 80.312 127.215 77.528 127.215 73.752V65.208C127.215 61.432 126.479 58.744 125.007 57.144C123.535 55.48 120.847 54.648 116.943 54.648ZM215.709 66.744V73.656C215.709 81.656 213.277 88.056 208.413 92.856C203.613 97.592 196.733 99.96 187.773 99.96H181.053C172.093 99.96 165.181 97.592 160.317 92.856C155.453 88.056 153.021 81.656 153.021 73.656V66.744C153.021 58.744 155.453 52.376 160.317 47.64C165.181 42.84 172.093 40.44 181.053 40.44H187.773C196.733 40.44 203.613 42.84 208.413 47.64C213.277 52.376 215.709 58.744 215.709 66.744ZM196.989 65.208C196.989 61.496 196.285 58.744 194.877 56.952C193.533 55.096 191.101 54.168 187.581 54.168H181.245C177.725 54.168 175.261 55.096 173.853 56.952C172.445 58.744 171.741 61.496 171.741 65.208V75.096C171.741 78.872 172.445 81.688 173.853 83.544C175.261 85.336 177.725 86.232 181.245 86.232H187.581C191.101 86.232 193.533 85.336 194.877 83.544C196.285 81.688 196.989 78.872 196.989 75.096V65.208ZM266.163 84.12V41.4H284.403V99H248.691C240.307 99 234.227 96.888 230.451 92.664C226.675 88.44 224.787 82.712 224.787 75.48V41.4H243.027V75.96C243.027 78.904 243.507 81.016 244.467 82.296C245.491 83.512 247.411 84.12 250.227 84.12H266.163ZM291.92 55.32V41.4H301.232V29.688H318.032V41.4H337.712V55.32H318.032V78.648C318.032 81.08 318.544 82.776 319.568 83.736C320.592 84.632 322.256 85.08 324.56 85.08H337.712V99H322.448C314.512 99 308.816 97.336 305.36 94.008C301.968 90.616 300.272 85.496 300.272 78.648V55.32H291.92ZM370.662 99V41.4H439.014C447.782 41.4 454.118 43.512 458.022 47.736C461.926 51.96 463.878 57.688 463.878 64.92V99H445.638V64.44C445.638 61.496 445.126 59.416 444.102 58.2C443.142 56.92 441.254 56.28 438.438 56.28H426.342V99H408.102V56.28H388.902V99H370.662ZM532.795 75.576H491.611V75.96C491.611 79.608 492.411 82.04 494.011 83.256C495.611 84.472 498.363 85.08 502.267 85.08H531.451V99H503.323C497.691 99 492.923 98.392 489.019 97.176C485.179 95.896 482.075 94.136 479.707 91.896C477.403 89.592 475.707 86.84 474.619 83.64C473.595 80.44 473.083 76.92 473.083 73.08V65.784C473.083 58.168 475.291 52.088 479.707 47.544C484.123 42.936 491.355 40.632 501.403 40.632H505.243C510.619 40.632 515.099 41.272 518.683 42.552C522.267 43.832 525.083 45.656 527.131 48.024C529.243 50.328 530.715 53.112 531.547 56.376C532.379 59.64 532.795 63.256 532.795 67.224V75.576ZM507.355 53.496H499.867C496.795 53.496 494.651 54.168 493.435 55.512C492.219 56.856 491.611 59.096 491.611 62.232V63.48H515.515V62.232C515.515 59.096 514.875 56.856 513.595 55.512C512.379 54.168 510.299 53.496 507.355 53.496Z" fill="#FAFAF9"/>
<path d="M136.5 113.5C136.5 113.5 374 27.5725 412.5 101.145C451 174.717 259 44.1451 503 68.0725" stroke="#20F944" stroke-width="7" stroke-linecap="round"/>
</svg>
