<svg width="674" height="360" viewBox="0 0 674 360" fill="none" xmlns="http://www.w3.org/2000/svg">
<rect y="79" width="525" height="230" fill="#1B1C1E"/>
<mask id="mask0_76_44" style="mask-type:alpha" maskUnits="userSpaceOnUse" x="68" y="-1" width="608" height="362">
<path d="M70 0L191.45 360" stroke="#20F944" stroke-width="4"/>
<path d="M83.3828 0L204.833 360" stroke="#20F944" stroke-width="4"/>
<path d="M96.7656 0L218.215 360" stroke="#20F944" stroke-width="4"/>
<path d="M110.149 0L231.599 360" stroke="#20F944" stroke-width="4"/>
<path d="M123.532 0L244.982 360" stroke="#20F944" stroke-width="4"/>
<path d="M136.915 0L258.364 360" stroke="#20F944" stroke-width="4"/>
<path d="M150.297 0L271.747 360" stroke="#20F944" stroke-width="4"/>
<path d="M163.68 0L285.13 360" stroke="#20F944" stroke-width="4"/>
<path d="M177.063 0L298.513 360" stroke="#20F944" stroke-width="4"/>
<path d="M190.446 0L311.896 360" stroke="#20F944" stroke-width="4"/>
<path d="M205 0L326.45 360" stroke="#20F944" stroke-width="4"/>
<path d="M217.212 0L338.662 360" stroke="#20F944" stroke-width="4"/>
<path d="M230.595 0L352.045 360" stroke="#20F944" stroke-width="4"/>
<path d="M243.978 0L365.427 360" stroke="#20F944" stroke-width="4"/>
<path d="M257.36 0L378.81 360" stroke="#20F944" stroke-width="4"/>
<path d="M270.744 0L392.193 360" stroke="#20F944" stroke-width="4"/>
<path d="M284.126 0L405.576 360" stroke="#20F944" stroke-width="4"/>
<path d="M297.509 0L418.959 360" stroke="#20F944" stroke-width="4"/>
<path d="M310.892 0L432.342 360" stroke="#20F944" stroke-width="4"/>
<path d="M324.275 0L445.725 360" stroke="#20F944" stroke-width="4"/>
<path d="M337.658 0L459.108 360" stroke="#20F944" stroke-width="4"/>
<path d="M351.041 0L472.491 360" stroke="#20F944" stroke-width="4"/>
<path d="M364.424 0L485.874 360" stroke="#20F944" stroke-width="4"/>
<path d="M377.807 0L499.256 360" stroke="#20F944" stroke-width="4"/>
<path d="M391.189 0L512.639 360" stroke="#20F944" stroke-width="4"/>
<path d="M404.572 0L526.022 360" stroke="#20F944" stroke-width="4"/>
<path d="M417.956 0L539.405 360" stroke="#20F944" stroke-width="4"/>
<path d="M431.338 0L552.788 360" stroke="#20F944" stroke-width="4"/>
<path d="M444.721 0L566.171 360" stroke="#20F944" stroke-width="4"/>
<path d="M458.104 0L579.554 360" stroke="#20F944" stroke-width="4"/>
<path d="M471.487 0L592.937 360" stroke="#20F944" stroke-width="4"/>
<path d="M484.87 0L606.32 360" stroke="#20F944" stroke-width="4"/>
<path d="M498.253 0L619.703 360" stroke="#20F944" stroke-width="4"/>
<path d="M511.636 0L633.086 360" stroke="#20F944" stroke-width="4"/>
<path d="M525.019 0L646.468 360" stroke="#20F944" stroke-width="4"/>
<path d="M538.401 0L659.851 360" stroke="#20F944" stroke-width="4"/>
<path d="M551.784 0L673.234 360" stroke="#20F944" stroke-width="4"/>
</mask>
<g mask="url(#mask0_76_44)">
<circle cx="418.29" cy="193.718" r="90" fill="#20F944"/>
</g>
<path d="M59.216 187.32C55.44 187.32 52.656 188.184 50.864 189.912C49.136 191.576 48.272 194.136 48.272 197.592V207.48C48.272 211.32 49.136 213.88 50.864 215.16C52.656 216.44 55.44 217.08 59.216 217.08H80.816V231H58.64C48.336 231 40.912 228.76 36.368 224.28C31.824 219.8 29.552 213.624 29.552 205.752V198.744C29.552 190.872 31.824 184.696 36.368 180.216C40.912 175.672 48.336 173.4 58.64 173.4H80.816V187.32H59.216ZM149.99 198.744V205.656C149.99 213.656 147.558 220.056 142.694 224.856C137.894 229.592 131.014 231.96 122.054 231.96H115.334C106.374 231.96 99.462 229.592 94.598 224.856C89.734 220.056 87.302 213.656 87.302 205.656V198.744C87.302 190.744 89.734 184.376 94.598 179.64C99.462 174.84 106.374 172.44 115.334 172.44H122.054C131.014 172.44 137.894 174.84 142.694 179.64C147.558 184.376 149.99 190.744 149.99 198.744ZM131.27 197.208C131.27 193.496 130.566 190.744 129.158 188.952C127.814 187.096 125.382 186.168 121.862 186.168H115.526C112.006 186.168 109.542 187.096 108.134 188.952C106.726 190.744 106.022 193.496 106.022 197.208V207.096C106.022 210.872 106.726 213.688 108.134 215.544C109.542 217.336 112.006 218.232 115.526 218.232H121.862C125.382 218.232 127.814 217.336 129.158 215.544C130.566 213.688 131.27 210.872 131.27 207.096V197.208ZM159.068 231V173.4H194.78C203.164 173.4 209.244 175.512 213.02 179.736C216.796 183.96 218.684 189.688 218.684 196.92V231H200.444V196.44C200.444 193.496 199.932 191.416 198.908 190.2C197.948 188.92 196.06 188.28 193.244 188.28H177.308V231H159.068ZM226.201 187.32V173.4H235.513V161.688H252.313V173.4H283.513V187.32H252.313V210.648C252.313 213.08 252.825 214.776 253.849 215.736C254.873 216.632 256.537 217.08 258.841 217.08H268.153V231H256.729C248.793 231 243.097 229.336 239.641 226.008C236.249 222.616 234.553 217.496 234.553 210.648V187.32H226.201ZM333.598 199.8V231H294.142C288.382 231 283.966 229.752 280.894 227.256C277.822 224.76 276.286 221.496 276.286 217.464C276.286 213.048 277.79 209.528 280.798 206.904C283.806 204.216 287.422 201.432 291.646 198.552L307.966 187.32H277.63V173.4H302.878C313.886 173.4 321.758 175.736 326.494 180.408C331.23 185.016 333.598 191.48 333.598 199.8ZM299.326 217.08H316.318V197.976L298.942 211.512C297.854 212.344 297.086 212.984 296.638 213.432C296.19 213.816 295.966 214.328 295.966 214.968C295.966 215.672 296.222 216.216 296.734 216.6C297.246 216.92 298.11 217.08 299.326 217.08ZM372.341 187.32C368.565 187.32 365.781 188.184 363.989 189.912C362.261 191.576 361.397 194.136 361.397 197.592V207.48C361.397 211.32 362.261 213.88 363.989 215.16C365.781 216.44 368.565 217.08 372.341 217.08H391.061V231H371.765C361.461 231 354.037 228.76 349.493 224.28C344.949 219.8 342.677 213.624 342.677 205.752V198.744C342.677 190.872 344.949 184.696 349.493 180.216C354.037 175.672 361.461 173.4 371.765 173.4H413.141V187.32H372.341ZM394.858 187.32V173.4H404.17V161.688H420.97V173.4H440.65V187.32H420.97V210.648C420.97 213.08 421.482 214.776 422.506 215.736C423.53 216.632 425.194 217.08 427.498 217.08H440.65V231H425.386C417.45 231 411.754 229.336 408.298 226.008C404.906 222.616 403.21 217.496 403.21 210.648V187.32H394.858Z" fill="#FAFAF9"/>
</svg>
