<svg width="301" height="76" viewBox="0 0 301 76" fill="none" xmlns="http://www.w3.org/2000/svg">
<path d="M34.248 55.84L18.6 52.768C12.84 51.616 8.424 49.6 5.352 46.72C2.344 43.84 0.84 40 0.84 35.2C0.84 32.96 1.256 30.816 2.088 28.768C2.984 26.72 4.328 24.928 6.12 23.392C7.976 21.856 10.312 20.64 13.128 19.744C16.008 18.848 19.4 18.4 23.304 18.4H71.112V32.32H21.864C19.944 32.32 18.664 32.608 18.024 33.184C17.384 33.76 17.064 34.4 17.064 35.104C17.064 35.872 17.352 36.544 17.928 37.12C18.504 37.696 19.496 38.112 20.904 38.368L35.112 41.152C42.152 42.56 47.176 44.672 50.184 47.488C53.256 50.24 54.792 53.92 54.792 58.528C54.792 63.712 52.808 67.936 48.84 71.2C44.936 74.4 38.984 76 30.984 76H2.76V62.08H33.576C35.624 62.08 37.032 61.792 37.8 61.216C38.568 60.64 38.952 59.904 38.952 59.008C38.952 58.048 38.504 57.344 37.608 56.896C36.776 56.448 35.656 56.096 34.248 55.84ZM114.473 44.8V76H75.0173C69.2573 76 64.8413 74.752 61.7693 72.256C58.6973 69.76 57.1613 66.496 57.1613 62.464C57.1613 58.048 58.6653 54.528 61.6733 51.904C64.6813 49.216 68.2973 46.432 72.5213 43.552L88.8413 32.32H58.5053V18.4H83.7533C94.7613 18.4 102.633 20.736 107.369 25.408C112.105 30.016 114.473 36.48 114.473 44.8ZM80.2013 62.08H97.1933V42.976L79.8173 56.512C78.7293 57.344 77.9613 57.984 77.5133 58.432C77.0653 58.816 76.8413 59.328 76.8413 59.968C76.8413 60.672 77.0973 61.216 77.6093 61.6C78.1213 61.92 78.9853 62.08 80.2013 62.08ZM131.712 76V32.32H122.88V18.4H131.808C132.256 12.384 134.048 7.84 137.184 4.768C140.32 1.696 145.6 0.159998 153.024 0.159998H166.272V12.064H152.256C150.848 12.064 149.792 12.416 149.088 13.12C148.384 13.824 148.032 14.976 148.032 16.576V18.4H175.872V32.32H149.952V76H131.712ZM223.598 44.8V76H184.142C178.382 76 173.966 74.752 170.894 72.256C167.822 69.76 166.286 66.496 166.286 62.464C166.286 58.048 167.79 54.528 170.798 51.904C173.806 49.216 177.422 46.432 181.646 43.552L197.966 32.32H167.63V18.4H192.878C203.886 18.4 211.758 20.736 216.494 25.408C221.23 30.016 223.598 36.48 223.598 44.8ZM189.326 62.08H206.318V42.976L188.942 56.512C187.854 57.344 187.086 57.984 186.638 58.432C186.19 58.816 185.966 59.328 185.966 59.968C185.966 60.672 186.222 61.216 186.734 61.6C187.246 61.92 188.11 62.08 189.326 62.08ZM234.693 39.808C234.693 37.056 235.109 34.4 235.941 31.84C236.773 29.28 238.085 27.008 239.877 25.024C241.669 23.04 243.973 21.44 246.789 20.224C249.669 19.008 253.093 18.4 257.061 18.4H273.957V32.32H261.189C257.925 32.32 255.717 32.896 254.565 34.048C253.477 35.2 252.933 37.184 252.933 40V76H234.693V39.808ZM300.398 13.408H282.158V2.08H300.398V13.408ZM282.158 76V18.4H300.398V76H282.158Z" fill="#FAFAF9"/>
</svg>
